<svg width="222" height="53" viewBox="0 0 222 53" fill="none" xmlns="http://www.w3.org/2000/svg">
<rect width="222" height="53" rx="7" fill="#E5E7EB"/>
<path d="M22.0341 22.3295C21.9053 21.8523 21.7159 21.4318 21.4659 21.0682C21.2159 20.697 20.9091 20.3826 20.5455 20.125C20.1818 19.8674 19.7652 19.6742 19.2955 19.5455C18.8258 19.4091 18.3106 19.3409 17.75 19.3409C16.6212 19.3409 15.6439 19.6136 14.8182 20.1591C14 20.7045 13.3674 21.5 12.9205 22.5455C12.4735 23.5833 12.25 24.8447 12.25 26.3295C12.25 27.822 12.4659 29.0947 12.8977 30.1477C13.3295 31.2008 13.9545 32.0038 14.7727 32.5568C15.5909 33.1098 16.5833 33.3864 17.75 33.3864C18.7803 33.3864 19.6515 33.2197 20.3636 32.8864C21.0833 32.5455 21.6288 32.0644 22 31.4432C22.3712 30.822 22.5568 30.0909 22.5568 29.25L23.6023 29.375H17.9432V25.2727H27.9773V28.3523C27.9773 30.4356 27.5341 32.2197 26.6477 33.7045C25.7689 35.1894 24.5568 36.3295 23.0114 37.125C21.4735 37.9205 19.7045 38.3182 17.7045 38.3182C15.4848 38.3182 13.5341 37.8371 11.8523 36.875C10.1705 35.9129 8.85985 34.5417 7.92045 32.7614C6.98106 30.9735 6.51136 28.8523 6.51136 26.3977C6.51136 24.4886 6.79545 22.7955 7.36364 21.3182C7.93182 19.8333 8.72348 18.5758 9.73864 17.5455C10.7614 16.5152 11.9432 15.7348 13.2841 15.2045C14.6326 14.6742 16.0833 14.4091 17.6364 14.4091C18.9848 14.4091 20.2386 14.6023 21.3977 14.9886C22.5644 15.375 23.5947 15.9205 24.4886 16.625C25.3902 17.3295 26.1212 18.1667 26.6818 19.1364C27.2424 20.1061 27.5909 21.1705 27.7273 22.3295H22.0341ZM35.608 38H29.5625L37.4148 14.7273H44.9034L52.7557 38H46.7102L41.2443 20.5909H41.0625L35.608 38ZM34.8011 28.8409H47.4375V33.1136H34.8011V28.8409ZM67.1222 21.7045C67.0464 20.8712 66.7093 20.2235 66.1108 19.7614C65.5199 19.2917 64.6752 19.0568 63.5767 19.0568C62.8494 19.0568 62.2434 19.1515 61.7585 19.3409C61.2737 19.5303 60.91 19.7917 60.6676 20.125C60.4252 20.4508 60.3002 20.8258 60.2926 21.25C60.2775 21.5985 60.3456 21.9053 60.4972 22.1705C60.6563 22.4356 60.8835 22.6705 61.179 22.875C61.482 23.072 61.8456 23.2462 62.2699 23.3977C62.6941 23.5492 63.1714 23.6818 63.7017 23.7955L65.7017 24.25C66.8532 24.5 67.8684 24.8333 68.7472 25.25C69.6335 25.6667 70.3759 26.1629 70.9744 26.7386C71.5805 27.3144 72.0388 27.9773 72.3494 28.7273C72.66 29.4773 72.8191 30.3182 72.8267 31.25C72.8191 32.7197 72.4479 33.9811 71.7131 35.0341C70.9782 36.0871 69.9214 36.8939 68.5426 37.4545C67.1714 38.0152 65.5161 38.2955 63.5767 38.2955C61.6297 38.2955 59.9328 38.0038 58.4858 37.4205C57.0388 36.8371 55.9138 35.9508 55.1108 34.7614C54.3078 33.572 53.8949 32.0682 53.8722 30.25H59.2585C59.304 31 59.5047 31.625 59.8608 32.125C60.2169 32.625 60.7055 33.0038 61.3267 33.2614C61.9555 33.5189 62.6828 33.6477 63.5085 33.6477C64.2661 33.6477 64.91 33.5455 65.4403 33.3409C65.9782 33.1364 66.3911 32.8523 66.679 32.4886C66.9669 32.125 67.1146 31.7083 67.1222 31.2386C67.1146 30.7992 66.9782 30.4242 66.7131 30.1136C66.4479 29.7955 66.0388 29.5227 65.4858 29.2955C64.9403 29.0606 64.2434 28.8447 63.3949 28.6477L60.9631 28.0795C58.9479 27.6174 57.3608 26.8712 56.2017 25.8409C55.0426 24.803 54.4669 23.4015 54.4744 21.6364C54.4669 20.197 54.8532 18.9356 55.6335 17.8523C56.4138 16.7689 57.4934 15.9242 58.8722 15.3182C60.2509 14.7121 61.8229 14.4091 63.5881 14.4091C65.3911 14.4091 66.9555 14.7159 68.2812 15.3295C69.6146 15.9356 70.6487 16.7879 71.3835 17.8864C72.1184 18.9848 72.4934 20.2576 72.5085 21.7045H67.1222ZM74.9062 19.2955V14.7273H94.5767V19.2955H87.5199V38H81.9744V19.2955H74.9062ZM97.3239 38V14.7273H106.938C108.68 14.7273 110.184 15.0417 111.449 15.6705C112.722 16.2917 113.703 17.1856 114.392 18.3523C115.081 19.5114 115.426 20.8864 115.426 22.4773C115.426 24.0909 115.074 25.4621 114.369 26.5909C113.665 27.7121 112.665 28.5682 111.369 29.1591C110.074 29.7424 108.54 30.0341 106.767 30.0341H100.688V25.6023H105.722C106.57 25.6023 107.278 25.4924 107.847 25.2727C108.422 25.0455 108.858 24.7045 109.153 24.25C109.449 23.7879 109.597 23.197 109.597 22.4773C109.597 21.7576 109.449 21.1629 109.153 20.6932C108.858 20.2159 108.422 19.8598 107.847 19.625C107.271 19.3826 106.563 19.2614 105.722 19.2614H102.949V38H97.3239ZM110.426 27.3636L116.222 38H110.085L104.403 27.3636H110.426ZM140.477 26.3636C140.477 28.9242 139.985 31.0947 139 32.875C138.015 34.6553 136.682 36.0076 135 36.9318C133.326 37.8561 131.447 38.3182 129.364 38.3182C127.273 38.3182 125.39 37.8523 123.716 36.9205C122.042 35.9886 120.712 34.6364 119.727 32.8636C118.75 31.0833 118.261 28.9167 118.261 26.3636C118.261 23.803 118.75 21.6326 119.727 19.8523C120.712 18.072 122.042 16.7197 123.716 15.7955C125.39 14.8712 127.273 14.4091 129.364 14.4091C131.447 14.4091 133.326 14.8712 135 15.7955C136.682 16.7197 138.015 18.072 139 19.8523C139.985 21.6326 140.477 23.803 140.477 26.3636ZM134.727 26.3636C134.727 24.8485 134.511 23.5682 134.08 22.5227C133.655 21.4773 133.042 20.6856 132.239 20.1477C131.443 19.6098 130.485 19.3409 129.364 19.3409C128.25 19.3409 127.292 19.6098 126.489 20.1477C125.686 20.6856 125.068 21.4773 124.636 22.5227C124.212 23.5682 124 24.8485 124 26.3636C124 27.8788 124.212 29.1591 124.636 30.2045C125.068 31.25 125.686 32.0417 126.489 32.5795C127.292 33.1174 128.25 33.3864 129.364 33.3864C130.485 33.3864 131.443 33.1174 132.239 32.5795C133.042 32.0417 133.655 31.25 134.08 30.2045C134.511 29.1591 134.727 27.8788 134.727 26.3636ZM150.693 34.6364V18.1818H155.273V34.6364H150.693ZM144.75 28.7045V24.1136H161.205V28.7045H144.75Z" fill="#4CA62F"/>
<path d="M211.125 10.25V42.75H207.208V29.75H201.333V18.375C201.333 13.8877 205.717 10.25 211.125 10.25ZM187.625 29.5875V42.75H183.708V29.5875C179.239 28.8346 175.875 25.5559 175.875 21.625V11.875H179.792V23.25H183.708V11.875H187.625V23.25H191.542V11.875H195.458V21.625C195.458 25.5559 192.094 28.8346 187.625 29.5875Z" fill="#4CA62F"/>
</svg>
